<!--?xml version="1.0" encoding="UTF-8"?-->
<svg id="_图层_1" data-name="图层 1" xmlns="http://www.w3.org/2000/svg" viewBox="0 0 2072 483" class="" style="">
  <defs>
    <style>
      .cls-1 {
        fill: none;
        stroke: #000;
        stroke-linecap: round;
        stroke-width: 10px;
      }
    </style>
  </defs>
  <path class="cls-1 FvHqWrSt_0" d="M184,162c4.15-2.82,7.31-4.29,12-2l-3,10-9.96-6.65-16.78,17.65-30.45,43-10.81,23h-38M197,158l-1,1M494,229c-2.4-2.44-6.1-5.24-6.07-9,.03-5.52,4.92-12.2,7.32-17,7.37-14.75,15.32-34.32,30.75-42,13.86,15.72-10.56,45.16-20.73,57-5.59,6.51-12.09,14.81-21.27,11-10.73,16.42-16.42,39.73-19.13,59-1.1,7.83-2.44,16.4.13,24,10.33-3.79,11.78-13.83,15.86-23,6.04-13.56,14.53-32.16,28.14-39.58,14.73-8.03,33.54-.01,26.44,18.58-5.07,13.26-17.67,10.8-26,18.56-8.72,8.12,4.18,29.11,11.57,33.69,18.37,11.4,27.5-22.14,43-19.26l5-19c2.51,2.5,5.33,6.24,9,6.93,4.99.94,11.74-3.01,16-5.19,13.47-6.92,28.74-17.71,31.29-33.74,3.27-20.55-21.98-11.13-30.29-4.38-4.84,3.93-9.47,8.42-13.25,13.38-5.22,6.86-10.72,14.52-12.75,23M193,170c-8.68,37.49-25.35,71.97-28.09,111-.7,9.97-3.81,32.42,8.1,37.37,10.34,4.3,21.68-6.96,26.94-14.37,2.36-3.32,5.63-10.51,10.9-9.18,3.63.91,3.27,6.31,3.74,9.18,1.35,8.31,5.2,17.65,15.41,15.31,19.4-4.45,19.74-36.43,38-38.31,0,7.05-.28,13.98-.62,21-.99,20.06,11.87,24.71,25.45,9.98,7.82-8.48,12.54-18.65,19.12-27.94,2.28-3.21,6.83-4.73,8.46-8.26,3.98-8.6,1.48-17.99,6.59-26.79M1670,186c-21.49,25.27-40.79,66.99-44.95,100-1.42,11.23-6.39,29.74,6.99,36.43,12.03,6.01,27.25-3.37,35.92-11.02,5.66-4.99,9.78-12.74,18.04-8.41l8-13c4.39,2.93,6.83,1.92,11-1l-9-9-2,10M487,222l-2,7M1117,226c-12.09,17.19,12.61,23.32,15.53,40,2.83,16.11-14.49,30.02-9.3,46,2.96,9.13,13.31,8.67,20.77,5.36,14.02-6.23,27.1-20.27,33-34.36M1914,229c-2.16,5.02-1.61,11.31-4.03,15.96-4.72,9.1-13.74,18.87-20.18,27.04-6.18,7.83-16.75,15.52-17.33,26-1.41,25.22,34.12,40.89,44.54,14l-20-9.75-17-16.25M1995,229c-2.16,5.02-1.61,11.31-4.03,15.96-4.72,9.1-13.74,18.87-20.18,27.04-6.19,7.85-16.75,15.49-17.2,26-1.06,25.02,33.89,41.16,44.41,14l-20-9.75-17-16.25M1274,232c-1.39,4.39-.75,9.76-2.45,13.9-1.25,3.04-4.74,4.72-6.79,7.21-4.89,5.94-8.62,12.85-13.43,18.9-4.99,6.28-14.45,13.15-16.82,21-4.84,16.06,8.52,34.59,25.49,32.82,5.42-.56,19.53-6.07,16.75-13.77-1.61-4.45-8.99-5.06-12.75-6.84-9.22-4.39-14.09-12.4-22-18.21M1509,237.53c15.21-3.51,19.07,11.34,12.19,22.47-8.48,13.71-28.57,28.48-45.19,30.09-12.52,1.21-5.78-13.96-2.85-19.09,7.56-13.24,20.02-29.82,35.85-33.47M1843,237.53c15.12-3.47,19.04,11.38,12.19,22.47-8.48,13.71-28.57,28.48-45.19,30.09-12.7,1.23-5.73-13.97-2.86-19.09,7.43-13.29,20.09-29.85,35.86-33.47M951,296c-9.67-11.35-15.49-27.13-10.64-42,2.89-8.86,11.22-18.74,21.62-14.29,9.01,3.85,7.14,18.69,4.98,26.29-5.5,19.3-20.35,45.01-39.96,52.53-7.84,3.01-16.62,1.36-19.28-7.53-1.15-3.85-.34-12.55-5.78-13.26-4.04-.52-6.84,3.68-9.23,6.22-5.07,5.41-11.39,10-17.71,13.83-3.34,2.02-8.13,5.48-11.64,1.87-4.49-4.62,2.73-19.23,4.22-24.67.77-2.81,2.5-7.74-.89-9.57-4.03-2.18-7.37,2.95-9.43,5.58-5.29,6.75-11.66,15.51-20.26,18.05-10.48,3.1-18.52-3.03-18.66-14.06-.18-14.7,6.97-30.29,13.66-43M1586,240.47c15.18-2.84,16.59,13.51,10.54,23.53-7.83,12.96-28.04,25.57-43.54,26.34-11.47.57-4.76-13.5-2-18.34,7.58-13.26,18.93-28.53,35-31.53M464,292c-7.66-3.69-11.1,3.7-15.29,9-6.35,8.04-15.2,16.89-25.71,18.83-7.07,1.3-12.51-.71-15.1-7.83-1.39-3.84-1.48-11.06-6.92-11.45-4.79-.34-8.26,5.44-11.07,8.45-6.08,6.51-14.95,15.88-24.91,14.81-9.47-1.01-11-14.46-9.68-21.81,3.51-19.58,16.86-38.38,31.68-51,11.88-10.11,39.73-17.91,40,6M1113,242c-13.5,21.72-17.14,47.14-36,66-7.29,7.28-26.93,21.6-34.55,7-3.35-6.44-1.45-15-1.45-21.99-14.6,1.33-16.63,21.89-31,26.06-11.56,3.35-15.39-9.05-16.7-18.06-.44-3.04.3-7.77-3.45-8.95-4.11-1.3-8.44,3.16-11.85,4.82-8.1,3.93-17.65,4.74-25-.86M1640,243c8.7,7.36,34.35,5.15,45,2M1623,245l11,5M1910,246c6.33,11.42,9.95,30.95,10.91,44,.43,5.93-1.54,15.06,6.09,17.3,8.97,2.63,17.16-9.02,26-9.3M1991,246c6.26,11.3,8.31,28.3,10.54,41,.91,5.24-1.1,12.37,2.06,16.94,6.6,9.52,21.17-2.43,26.31-7.95,3.57-3.84,6.08-8.19,8.09-13M117,248c-1.62,12.57-9.77,23.08-15.69,34-7.57,13.97-13.86,28.52-20.31,43M126,248c12.53,2.59,31.41,2.13,41,11M1273,248c3.35,16.24,8.89,31.26,9,48,.03,4.92,1.18,10.6,7,11.59,6.3,1.07,14.52-5.04,18.91-8.87,2.62-2.29,5.95-6.56,9.94-4.6,8.97,4.41.64,31.8,20.15,24.74,17.4-6.3,19.57-36.07,37-37.87,0,9.46-4.93,32.44,3.42,39.26,8,6.54,19.07-6.03,23.58-11.26,6.92-8.02,11.36-17.27,17.32-25.89,2.19-3.17,6.57-4.73,8.08-8.29,3.27-7.74,2.42-17.58,5.6-25.82M229,254c-7.98,12.11-11.13,26.25-15,40M1008,255l-15,38M1335,255c-7,11.99-11.21,25.47-14,39M274,257l-5,23M565,302c1.49,34.31,41.68,22.48,58,6.96,5.64-5.36,11.79-15.67,20-9.96l6-9c8.3,5.59,12.65-4.28,17.44-10,8.45-10.08,22.17-26.07,37.56-22.53,19.99,4.6.69,38.75,2.3,50.53,2.01,14.63,17.14,12.74,25.7,4.91,3.31-3.03,6.39-6.33,9.1-9.91,4.51-5.95,8.01-12.64,11.9-19M1381,257l-5,23M1705,288c4.57-5.76,9.04-11.64,14.09-17,3.47-3.68,7.39-7.25,11.91-9.6,3.12-1.63,6.58-2.47,10-3.19,9.95-2.11,17.35,2.92,16.79,13.79-.61,11.84-14.7,37.8-.75,45.9,17.02,9.87,24.89-20.7,39.96-17.9l4-14M879,259l-9,26M1055,262l-13,30M922,264c-7.56,9.54-14.36,21.56-15,34M654,265c-2.17,11.54-2.73,15.27,6,24M1699,265l-3,15M420,276l-14,26M1427,277c3.88,7.16,2.65,17.23,11.02,21.54,8.47,4.36,16.17-2.91,24.98.46l4-13M320,278c3.85,6.64,3.43,16.61,11.02,20.54,8.92,4.63,16.04-3.81,23.98,3.46M650,281l-1,9M568,287l8,3M1544,288c-1.05,5.66-1.63,11.26-.86,17,4.62,34.62,43.7,18.12,59.86,2.91,5.49-5.17,10.35-16.12,19-11.91M454,295l9,9M1464,300c.73,35.1,38.78,25.5,57,10.24,6.4-5.36,12.02-16.62,21-10.24M345,299l9,9M643,299l-5,15M1798,301c1.34,31.09,34.79,26.22,53,12.35,6.44-4.91,11.73-13.03,20-14.35M633,300l8,8M1686,303l-3,11M1281,304l-3,8M1676,304l7,7M1920,304l-2,7M2001,304l-2,7M861,319l-9,16-7-1c11.48,11.97-10.61,42.81-25,45.59-15.47,2.99-11.52-17.48-6.24-24.59,3.03-4.07,7.03-7.16,11.24-9.92,6.12-4.03,12.69-7.36,19-11.08M852,335l-1,4"></path>
<style data-made-with="vivus-instant">.FvHqWrSt_0{stroke-dasharray:5988 5990;stroke-dashoffset:5989;}.start .FvHqWrSt_0{animation:FvHqWrSt_draw 10000ms linear 0ms forwards;}@keyframes FvHqWrSt_draw{100%{stroke-dashoffset:0;}}@keyframes FvHqWrSt_fade{0%{stroke-opacity:1;}97.1830985915493%{stroke-opacity:1;}100%{stroke-opacity:0;}}</style></svg>